<svg xmlns="http://www.w3.org/2000/svg" width="20" height="23" viewBox="0 0 14 17" fill="none"  stroke="white" stroke-width="0" stroke-linecap="round" stroke-linejoin="round">
  <path d="M7 16.2C3.1101 15.3355 0 11.6654 0 7.80005V3.60005L7 0.800049L14 3.60005V7.80005C14 11.6668 10.8899 15.3355 7 16.2ZM1.4 4.30005V7.80005C1.44 9.41854 2.00925 10.9793 3.02062 12.2435C4.032 13.5078 5.42977 14.4057 7 14.8C8.57023 14.4057 9.968 13.5078 10.9794 12.2435C11.9907 10.9793 12.56 9.41854 12.6 7.80005V4.30005L7 2.20005L1.4 4.30005Z" fill="#242424"/>
  <path d="M7 7.80005C7.9665 7.80005 8.75 7.01655 8.75 6.05005C8.75 5.08355 7.9665 4.30005 7 4.30005C6.0335 4.30005 5.25 5.08355 5.25 6.05005C5.25 7.01655 6.0335 7.80005 7 7.80005Z" fill="#242424"/>
  <path d="M3.5 10.6C3.84491 11.2289 4.35078 11.7547 4.96578 12.1237C5.58079 12.4927 6.28283 12.6916 7 12.7C7.71717 12.6916 8.41921 12.4927 9.03422 12.1237C9.64922 11.7547 10.1551 11.2289 10.5 10.6C10.4825 9.27285 8.1606 8.50005 7 8.50005C5.8331 8.50005 3.5175 9.27285 3.5 10.6Z" fill="#242424"/>
</svg>