<svg xmlns="http://www.w3.org/2000/svg" width="24" height="24" viewBox="0 0 24 24" fill="none">
  <path d="M11.1151 4.6668C11.1151 4.7779 11.0932 4.88791 11.0507 4.99055C11.0082 5.09319 10.9459 5.18645 10.8673 5.26501C10.7887 5.34357 10.6955 5.40589 10.5928 5.4484C10.4902 5.49092 10.3802 5.5128 10.2691 5.5128C10.158 5.5128 10.048 5.49092 9.94534 5.4484C9.8427 5.40589 9.74944 5.34357 9.67088 5.26501C9.59232 5.18645 9.53001 5.09319 9.48749 4.99055C9.44498 4.88791 9.4231 4.7779 9.4231 4.6668C9.4231 4.44243 9.51223 4.22724 9.67088 4.06859C9.82954 3.90993 10.0447 3.8208 10.2691 3.8208C10.4935 3.8208 10.7087 3.90993 10.8673 4.06859C11.026 4.22724 11.1151 4.44243 11.1151 4.6668ZM13.6541 5.5128C13.8785 5.5128 14.0937 5.42367 14.2523 5.26501C14.411 5.10636 14.5001 4.89117 14.5001 4.6668C14.5001 4.44243 14.411 4.22724 14.2523 4.06859C14.0937 3.90993 13.8785 3.8208 13.6541 3.8208C13.4297 3.8208 13.2145 3.90993 13.0559 4.06859C12.8972 4.22724 12.8081 4.44243 12.8081 4.6668C12.8081 4.89117 12.8972 5.10636 13.0559 5.26501C13.2145 5.42367 13.4297 5.5128 13.6541 5.5128Z" fill="#4379DC"/>
  <path fill-rule="evenodd" clip-rule="evenodd" d="M6.35398 0.46984C6.42363 0.400145 6.50633 0.344857 6.59735 0.307136C6.68838 0.269415 6.78595 0.25 6.88448 0.25C6.98301 0.25 7.08058 0.269415 7.1716 0.307136C7.26263 0.344857 7.34533 0.400145 7.41498 0.46984L8.64298 1.69684C9.61512 1.11729 10.7262 0.812131 11.858 0.81384H12.065C13.24 0.81384 14.339 1.13584 15.28 1.69684L16.508 0.46984C16.6502 0.33736 16.8382 0.265237 17.0325 0.268665C17.2268 0.272093 17.4122 0.350805 17.5496 0.488218C17.687 0.625631 17.7657 0.811016 17.7692 1.00532C17.7726 1.19962 17.7005 1.38766 17.568 1.52984L16.477 2.62184C17.5461 3.67243 18.2035 5.07127 18.33 6.56484C18.5453 6.49284 18.773 6.45617 19.013 6.45484C19.5858 6.45484 20.1352 6.68241 20.5403 7.08749C20.9454 7.49257 21.173 8.04197 21.173 8.61484V13.6918C21.1732 14.0322 21.093 14.3677 20.9389 14.6711C20.7848 14.9746 20.5612 15.2373 20.2863 15.4379C20.0114 15.6385 19.693 15.7714 19.357 15.8256C19.021 15.8798 18.677 15.8538 18.353 15.7498V17.6148C18.353 18.5278 17.908 19.3358 17.224 19.8368V21.3068C17.224 21.9545 16.9667 22.5756 16.5087 23.0336C16.0508 23.4916 15.4296 23.7488 14.782 23.7488C14.1343 23.7488 13.5132 23.4916 13.0552 23.0336C12.5973 22.5756 12.34 21.9545 12.34 21.3068V20.3648H11.583V21.3078C11.583 21.9555 11.3257 22.5766 10.8677 23.0346C10.4098 23.4926 9.78864 23.7498 9.14098 23.7498C8.49332 23.7498 7.87219 23.4926 7.41422 23.0346C6.95626 22.5766 6.69898 21.9555 6.69898 21.3078V19.8368C6.34929 19.5814 6.06487 19.2471 5.86885 18.8609C5.67284 18.4748 5.57078 18.0479 5.57098 17.6148V15.7498C5.24694 15.8538 4.90291 15.8798 4.56694 15.8256C4.23097 15.7714 3.91256 15.6385 3.63766 15.4379C3.36276 15.2373 3.13916 14.9746 2.98507 14.6711C2.83098 14.3677 2.75077 14.0322 2.75098 13.6918V8.61484C2.7509 8.27264 2.83213 7.93531 2.98797 7.63065C3.14382 7.32599 3.36982 7.06272 3.64735 6.86253C3.92489 6.66234 4.24602 6.53095 4.58429 6.47919C4.92255 6.42744 5.26828 6.45679 5.59298 6.56484C5.71948 5.07127 6.37686 3.67243 7.44598 2.62184L6.35398 1.52984C6.21353 1.38921 6.13464 1.19859 6.13464 0.99984C6.13464 0.801089 6.21353 0.610465 6.35398 0.46984ZM7.31898 7.95484C7.25302 7.95537 7.18994 7.98194 7.14349 8.02877C7.09704 8.07559 7.07098 8.13888 7.07098 8.20484V17.6148C7.07097 17.9455 7.20198 18.2627 7.43532 18.497C7.66866 18.7312 7.98532 18.8635 8.31598 18.8648H15.607C15.9376 18.8635 16.2543 18.7312 16.4876 18.497C16.721 18.2627 16.852 17.9455 16.852 17.6148V8.20484C16.852 8.13888 16.8259 8.07559 16.7795 8.02877C16.733 7.98194 16.6699 7.95537 16.604 7.95484H7.31898ZM16.606 6.45484H16.809C16.6519 5.30805 16.0849 4.25692 15.2128 3.49585C14.3407 2.73478 13.2225 2.31525 12.065 2.31484H11.858C10.7005 2.31525 9.58228 2.73478 8.71018 3.49585C7.83807 4.25692 7.27105 5.30805 7.11398 6.45484H16.606ZM13.84 21.3078V20.3648H15.724V21.3078C15.724 21.4315 15.6996 21.554 15.6523 21.6683C15.6049 21.7826 15.5355 21.8865 15.4481 21.9739C15.3606 22.0614 15.2568 22.1308 15.1425 22.1781C15.0282 22.2255 14.9057 22.2498 14.782 22.2498C14.6583 22.2498 14.5358 22.2255 14.4215 22.1781C14.3072 22.1308 14.2034 22.0614 14.1159 21.9739C14.0284 21.8865 13.959 21.7826 13.9117 21.6683C13.8643 21.554 13.84 21.4315 13.84 21.3078ZM8.31398 20.3648H10.083V21.3078C10.083 21.5577 9.98373 21.7973 9.80707 21.9739C9.63041 22.1506 9.39081 22.2498 9.14098 22.2498C8.89114 22.2498 8.65154 22.1506 8.47488 21.9739C8.29822 21.7973 8.19898 21.5577 8.19898 21.3078V20.3648H8.31398ZM19.013 14.3528C18.8383 14.3528 18.6707 14.2836 18.547 14.1602C18.4233 14.0369 18.3535 13.8695 18.353 13.6948V8.61184C18.3534 8.4368 18.4233 8.26908 18.5473 8.14559C18.6088 8.08444 18.6816 8.03599 18.7618 8.00301C18.8419 7.97002 18.9278 7.95314 19.0145 7.95334C19.1011 7.95354 19.1869 7.9708 19.2669 8.00415C19.3469 8.0375 19.4196 8.08628 19.4807 8.14771C19.5419 8.20914 19.5903 8.282 19.6233 8.36215C19.6563 8.44231 19.6732 8.52817 19.673 8.61484V13.6918C19.673 13.8669 19.6034 14.0348 19.4797 14.1585C19.3559 14.2823 19.188 14.3528 19.013 14.3528ZM5.56998 8.60984C5.56945 8.4348 5.4994 8.26713 5.37525 8.14373C5.2511 8.02034 5.08302 7.95131 4.90798 7.95184C4.73293 7.95237 4.56527 8.02241 4.44187 8.14656C4.31847 8.27071 4.24945 8.4388 4.24998 8.61384V13.6908C4.24931 13.8659 4.31821 14.034 4.44152 14.1583C4.56482 14.2825 4.73243 14.3527 4.90748 14.3533C5.08252 14.354 5.25066 14.2851 5.3749 14.1618C5.49914 14.0385 5.56931 13.8709 5.56998 13.6958V8.60984Z" fill="#4379DC"/>
</svg>