<svg xmlns="http://www.w3.org/2000/svg" width="21" height="22" viewBox="0 0 20 21" fill="none"  stroke="white" stroke-width="0" stroke-linecap="round" stroke-linejoin="round">
  <path d="M15 8.83328C15 8.61227 14.9122 8.40031 14.756 8.24403C14.5997 8.08775 14.3877 7.99995 14.1667 7.99995H4.50837L6.42504 6.09162C6.58195 5.9347 6.67011 5.72187 6.67011 5.49995C6.67011 5.27803 6.58195 5.0652 6.42504 4.90828C6.26812 4.75136 6.05529 4.66321 5.83337 4.66321C5.61145 4.66321 5.39862 4.75136 5.2417 4.90828L1.90837 8.24162C1.79274 8.3588 1.71441 8.50761 1.68326 8.66927C1.65212 8.83093 1.66955 8.99819 1.73337 9.14995C1.79588 9.30213 1.90205 9.4324 2.03848 9.52435C2.17492 9.61629 2.33551 9.6658 2.50003 9.66662H14.1667C14.3877 9.66662 14.5997 9.57882 14.756 9.42254C14.9122 9.26626 15 9.0543 15 8.83328ZM18.2667 11.85C18.2042 11.6978 18.098 11.5675 17.9616 11.4756C17.8252 11.3836 17.6646 11.3341 17.5 11.3333H5.83337C5.61235 11.3333 5.40039 11.4211 5.24411 11.5774C5.08783 11.7336 5.00004 11.9456 5.00004 12.1666C5.00004 12.3876 5.08783 12.5996 5.24411 12.7559C5.40039 12.9122 5.61235 12.9999 5.83337 12.9999H15.4917L13.575 14.9083C13.4969 14.9858 13.4349 15.0779 13.3926 15.1795C13.3503 15.281 13.3285 15.3899 13.3285 15.4999C13.3285 15.61 13.3503 15.7189 13.3926 15.8204C13.4349 15.922 13.4969 16.0141 13.575 16.0916C13.6525 16.1697 13.7447 16.2317 13.8462 16.274C13.9478 16.3163 14.0567 16.3381 14.1667 16.3381C14.2767 16.3381 14.3856 16.3163 14.4872 16.274C14.5887 16.2317 14.6809 16.1697 14.7584 16.0916L18.0917 12.7583C18.2073 12.6411 18.2857 12.4923 18.3168 12.3306C18.348 12.169 18.3305 12.0017 18.2667 11.85Z" fill="#333333"/>
</svg>