<svg xmlns="http://www.w3.org/2000/svg" width="16" height="15" viewBox="0 0 16 15" fill="none">
  <path d="M4.96424 4.89234H11.0359M4.96424 7.92819H9.51801M12.5539 1.09753C13.1577 1.09753 13.7369 1.33742 14.1639 1.76442C14.5909 2.19142 14.8307 2.77055 14.8307 3.37442V9.44611C14.8307 10.05 14.5909 10.6291 14.1639 11.0561C13.7369 11.4831 13.1577 11.723 12.5539 11.723H8.75905L4.96424 13.9999V11.723H3.44632C2.84245 11.723 2.26332 11.4831 1.83632 11.0561C1.40932 10.6291 1.16943 10.05 1.16943 9.44611V3.37442C1.16943 2.77055 1.40932 2.19142 1.83632 1.76442C2.26332 1.33742 2.84245 1.09753 3.44632 1.09753H12.5539Z" stroke="#333333" stroke-width="1.3" stroke-linecap="round" stroke-linejoin="round"/>
</svg>