<svg xmlns="http://www.w3.org/2000/svg" width="14" height="14" viewBox="0 0 14 14" fill="none">
  <path d="M13.0001 2.17232C13.0001 1.76201 13.0001 1.55685 12.9195 1.40006C12.8494 1.26231 12.7376 1.15023 12.6 1.07986C12.4432 1 12.2381 1 11.8278 1H2.44918C2.03887 1 1.83371 1 1.67691 1.07986C1.53905 1.15011 1.42697 1.26219 1.35672 1.40006C1.27686 1.55685 1.27686 1.76201 1.27686 2.17232V2.71232C1.27686 2.89184 1.27686 2.98123 1.29737 3.06549C1.31531 3.1405 1.34499 3.21221 1.3853 3.27797C1.42999 3.35124 1.49374 3.41499 1.61976 3.54174L5.32943 7.25068C5.45619 7.37744 5.51993 7.44118 5.56463 7.51445C5.60517 7.58088 5.63448 7.65171 5.65255 7.72694C5.67307 7.81046 5.67307 7.89912 5.67307 8.07424V11.559C5.67307 12.1869 5.67307 12.5012 5.80495 12.6903C5.86217 12.772 5.93549 12.8412 6.02041 12.8936C6.10533 12.9461 6.20006 12.9806 6.29879 12.9951C6.52666 13.0288 6.80802 12.8888 7.36927 12.6075L7.95543 12.3144C8.19136 12.1972 8.3086 12.1385 8.39432 12.0506C8.47037 11.973 8.52818 11.8793 8.56358 11.7766C8.60387 11.6608 8.60387 11.5289 8.60387 11.2659V8.0801C8.60387 7.90059 8.60387 7.8112 8.62439 7.72694C8.64233 7.65192 8.672 7.58021 8.71231 7.51445C8.75628 7.44118 8.82002 7.37817 8.94458 7.25361L8.94751 7.25068L12.6572 3.54174C12.7832 3.41499 12.8462 3.35124 12.8916 3.27797C12.9322 3.21154 12.9615 3.14071 12.9796 3.06549C13.0001 2.98269 13.0001 2.8933 13.0001 2.71819V2.17232Z" stroke="currentColor" stroke-width="1.2" stroke-linecap="round" stroke-linejoin="round"/>
</svg>