<svg xmlns="http://www.w3.org/2000/svg" width="19" height="18" viewBox="0 0 16 15" fill="none">
  <path d="M4.2452 11.9548C5.27591 12.9856 6.63215 13.627 8.0828 13.7698C9.53345 13.9126 10.9887 13.5479 12.2006 12.738C13.4126 11.928 14.3061 10.7229 14.729 9.32791C15.1519 7.93295 15.078 6.43451 14.5199 5.08793C13.9618 3.74135 12.954 2.62996 11.6683 1.94318C10.3826 1.25639 8.89848 1.0367 7.46892 1.32154C6.03936 1.60638 4.75281 2.37812 3.82851 3.50526C2.90421 4.6324 2.39936 6.04517 2.4 7.50283V8.90003M2.4 8.90003L1 7.50003M2.4 8.90003L3.8 7.50003M8 4.70003V8.20003H11.5" stroke="#333333" stroke-width="1.5" stroke-linecap="round" stroke-linejoin="round"/>
</svg>