<svg xmlns="http://www.w3.org/2000/svg" width="19" height="25" viewBox="0 0 19 25" fill="none">
  <path fill-rule="evenodd" clip-rule="evenodd"
    d="M9.70783 22.3932C11.0222 21.2005 12.2387 19.9041 13.3455 18.5166C15.677 15.5874 17.0953 12.6994 17.1913 10.1314C17.2292 9.08777 17.0565 8.04716 16.6833 7.07176C16.3101 6.09636 15.7442 5.20618 15.0193 4.4544C14.2943 3.70261 13.4253 3.10466 12.4641 2.69624C11.503 2.28782 10.4693 2.07733 9.42497 2.07733C8.38062 2.07733 7.34698 2.28782 6.38579 2.69624C5.42461 3.10466 4.55561 3.70261 3.83069 4.4544C3.10578 5.20618 2.53982 6.09636 2.16664 7.07176C1.79345 8.04716 1.6207 9.08777 1.65868 10.1314C1.75583 12.6994 3.17526 15.5874 5.50554 18.5166C6.61236 19.9041 7.82884 21.2005 9.14326 22.3932C9.26973 22.5074 9.36383 22.5905 9.42554 22.6423L9.70783 22.3932ZM8.58211 23.7246C8.58211 23.7246 0.282684 16.7349 0.282684 9.85715C0.282684 7.43232 1.24595 5.10679 2.96057 3.39218C4.67518 1.67756 7.00071 0.714294 9.42554 0.714294C11.8504 0.714294 14.1759 1.67756 15.8905 3.39218C17.6051 5.10679 18.5684 7.43232 18.5684 9.85715C18.5684 16.7349 10.269 23.7246 10.269 23.7246C9.80726 24.1497 9.04726 24.1452 8.58211 23.7246ZM9.42554 13.0572C10.2742 13.0572 11.0882 12.72 11.6883 12.1199C12.2884 11.5198 12.6255 10.7058 12.6255 9.85715C12.6255 9.00846 12.2884 8.19453 11.6883 7.59441C11.0882 6.99429 10.2742 6.65715 9.42554 6.65715C8.57685 6.65715 7.76292 6.99429 7.1628 7.59441C6.56268 8.19453 6.22554 9.00846 6.22554 9.85715C6.22554 10.7058 6.56268 11.5198 7.1628 12.1199C7.76292 12.72 8.57685 13.0572 9.42554 13.0572ZM9.42554 14.4286C8.21312 14.4286 7.05036 13.9469 6.19305 13.0896C5.33574 12.2323 4.85411 11.0696 4.85411 9.85715C4.85411 8.64473 5.33574 7.48197 6.19305 6.62466C7.05036 5.76735 8.21312 5.28572 9.42554 5.28572C10.638 5.28572 11.8007 5.76735 12.658 6.62466C13.5153 7.48197 13.997 8.64473 13.997 9.85715C13.997 11.0696 13.5153 12.2323 12.658 13.0896C11.8007 13.9469 10.638 14.4286 9.42554 14.4286Z"
    fill="currentColor" />
</svg>